<svg xmlns="http://www.w3.org/2000/svg" version="1.1" viewBox="0 0 256 256">
	<g fill="#ffffff">
		<path d="m 194.816,47.652 c -0.702,1.785 -2.325,3.286 -4.404,4.500 21.363,14.851 35.362,39.576 35.362,67.566 0,45.413 -36.834,82.215 -82.247,82.215 -45.413,0 -82.215,-36.802 -82.215,-82.215 0,-8.738 1.368,-17.153 3.893,-25.054 C 54.560,92.408 45.265,86.871 41.651,79.313 64.782,77.246 63.736,58.402 78.705,51.227 70.179,52.524 63.651,49.929 60.800,47.939 31.921,68.806 13.118,102.782 13.118,141.134 13.118,204.582 64.568,256 128.015,256 c 63.447,0 114.865,-51.417 114.865,-114.865 0,-38.523 -18.965,-72.639 -48.065,-93.481 z"/>
		<path d="m 145.009,2.459 c 0,0 -17.341,16.600 -16.873,39.372 13.258,-15.375 33.870,-11.099 39.983,-10.782 6.112,0.316 14.382,0.733 20.511,-3.436 -4.184,13.251 -12.822,27.382 -41.006,22.124 22.103,5.836 25.052,12.907 28.587,16.368 3.535,3.460 9.099,8.462 16.838,9.078 -13.985,10.197 -35.591,13.135 -66.992,-21.433 18.046,27.517 8.894,62.123 8.894,62.123 0,0 -32.373,-11.923 -21.745,-60.221 C 101.708,84.960 76.195,93.961 51.195,82.487 70.976,78.719 69.624,66.207 78.152,58.899 86.679,51.591 90.883,48.747 106.513,49.256 96.178,41.377 56.348,51.436 56.275,14.832 c 6.633,14.652 19.047,10.613 24.436,10.776 5.389,0.163 18.644,-0.497 31.229,15.016 5.292,-22.263 23.292,-40.502 23.292,-40.502 0,0 5.887,-0.931 9.774,2.336 z"/>
	</g>
</svg>
